<svg viewBox="0 0 800 1670" xmlns="http://www.w3.org/2000/svg">
 <defs>
  <linearGradient id="bgGradient" x1="0%" y1="0%" x2="0%" y2="100%">
   <stop offset="0%" style="stop-color:#667eea;stop-opacity:1" />
   <stop offset="100%" style="stop-color:#764ba2;stop-opacity:1" />
  </linearGradient>
  <linearGradient id="cardBg" x1="0%" y1="0%" x2="0%" y2="100%">
   <stop offset="0%" style="stop-color:#ffffff;stop-opacity:1" />
   <stop offset="100%" style="stop-color:#fafbfc;stop-opacity:1" />
  </linearGradient>
  <filter id="shadow" x="-50%" y="-50%" width="200%" height="200%">
   <feDropShadow dx="0" dy="2" stdDeviation="4" flood-color="#00000015"/>
  </filter>
  <symbol id="github-icon" viewBox="0 0 16 16">
      <path fill="#ffffff" fill-rule="evenodd" d="M8 0C3.58 0 0 3.58 0 8c0 3.54 2.29 6.53 5.47 7.59.4.07.55-.17.55-.38 0-.19-.01-.82-.01-1.49-2.01.37-2.53-.49-2.69-.94-.09-.23-.48-.94-.82-1.13-.28-.15-.68-.52-.01-.53.63-.01 1.08.58 1.23.82.72 1.22 1.87.87 2.33.66.07-.52.28-.87.51-1.07-1.78-.2-3.64-.89-3.64-3.95 0-.87.31-1.59.82-2.15-.08-.2-.36-1.02.08-2.12 0 0 .67-.21 2.2.82.64-.18 1.32-.27 2-.27.68 0 1.36.09 2 .27 1.53-1.04 2.2-.82 2.2-.82.44 1.1.16 1.92.08 2.12.51.56.82 1.27.82 2.15 0 3.07-1.87 3.75-3.65 3.95.29.25.54.73.54 1.48 0 1.07-.01 1.93-.01 2.2 0 .21.15.46.55.38A8.013 8.013 0 0 0 16 8c0-4.42-3.58-8-8-8z"/>
  </symbol>
  <style>
   .card-link { cursor: pointer; }
   .card-link:hover rect { fill: #f0f9ff; }
   .card-text { font-family: Arial, sans-serif; -webkit-font-smoothing: antialiased; -moz-osx-font-smoothing: grayscale; }
   .tag-text { font-family: Arial, sans-serif; font-size: 10px; fill: #5a67d8; }
  </style>
   <symbol id="simple-icons-tistory" viewBox="0 0 24 24">
    <path fill="#FF6B35" d="M19.977 10.99H6.023v-1.174h13.954zm3.984-6.79h.54v6.24h3.69v1.175h-4.23zm-16.402 0h.54v6.24h3.72v1.175H7.558V10.44h3.72V4.2z"/>
   </symbol>
 </defs>

 <rect width="800" height="1670" fill="url(#bgGradient)"/>

    <rect x="20" y="20" width="760" height="60" rx="8" fill="#ffffff" filter="url(#shadow)"/>
    <a href="https://ohksj77.tistory.com" target="_blank" style="cursor: pointer;">
      <g transform="translate(40, 30) scale(0.025)">
      <svg role="img" viewBox="0 0 24 24" xmlns="http://www.w3.org/2000/svg"><title>Tistory</title><path fill="#FF6B35" d="M0 3a3 3 0 1 0 6 0 3 3 0 0 0-6 0m9 18a3 3 0 1 0 6 0 3 3 0 0 0-6 0m0-9a3 3 0 1 0 6 0 3 3 0 0 0-6 0m0-9a3 3 0 1 0 6 0 3 3 0 0 0-6 0m9 0a3 3 0 1 0 6 0 3 3 0 0 0-6 0"/></svg>
      </g>
      <text x="80" y="45" class="card-text" font-size="16" font-weight="bold" fill="#2d3748">ohksj77's Backend Tech Blog</text>
    </a>
  <text x="80" y="60" class="card-text" font-size="11" fill="#718096">팝콘도팝이다</text>

 <text x="30" y="110" class="card-text" font-size="16" font-weight="bold" fill="#ffffff">아이템 대량 개봉</text>
 <a href="https://ohksj77.tistory.com/274" class="card-link" target="_blank">
  <g filter="url(#shadow)">
   <rect x="30" y="125" width="740" height="90" rx="6" fill="url(#cardBg)"/>
   <rect x="30" y="125" width="740" height="4" rx="2" fill="#4299e1"/>
   <text x="45" y="145" class="tag-text">#대용량 데이터 처리 #부하분산 #시스템 설계 #RPC #MQ</text>
   <text x="45" y="170" class="card-text" font-size="14" font-weight="600" fill="#2d3748">API 서버 자체 부하분산 시스템 설계</text>
   <text x="45" y="190" class="card-text" font-size="11" fill="#718096">RPC와 식별자 기반 부하분산 시스템 설계</text>
   <text x="710" y="205" class="card-text" font-size="9" fill="#a0aec0">2025.04</text>
  </g>
 </a>

 <text x="30" y="255" class="card-text" font-size="16" font-weight="bold" fill="#ffffff">이길저길</text>
 <a href="https://github.com/HongDam-org/TWTW" target="_blank">
  <use href="#github-icon" x="100" y="242" width="16" height="16"/>
 </a>
 
 <a href="https://ohksj77.tistory.com/252" class="card-link" target="_blank">
  <g filter="url(#shadow)">
   <rect x="30" y="270" width="360" height="90" rx="6" fill="url(#cardBg)"/>
   <rect x="30" y="270" width="360" height="4" rx="2" fill="#48bb78"/>
   <text x="45" y="290" class="tag-text">#시스템 설계 #STOMP #MQ</text>
   <text x="45" y="315" class="card-text" font-size="14" font-weight="600" fill="#2d3748">실시간 시스템 설계</text>
   <text x="45" y="335" class="card-text" font-size="11" fill="#718096">실시간 양방향 위치 공유 시스템 설계</text>
   <text x="330" y="350" class="card-text" font-size="9" fill="#a0aec0">2024.03</text>
  </g>
 </a>

 <a href="https://ohksj77.tistory.com/267" class="card-link" target="_blank">
  <g filter="url(#shadow)">
   <rect x="410" y="270" width="360" height="90" rx="6" fill="url(#cardBg)"/>
   <rect x="410" y="270" width="360" height="4" rx="2" fill="#48bb78"/>
   <text x="425" y="290" class="tag-text">#인스턴스 자원 사용률 #커넥션 안정성 #성능</text>
   <text x="425" y="315" class="card-text" font-size="14" font-weight="600" fill="#2d3748">실시간 통신 기술 성능 테스트</text>
   <text x="425" y="335" class="card-text" font-size="11" fill="#718096">WebSocket vs SSE vs API Polling vs STOMP 비교</text>
   <text x="710" y="350" class="card-text" font-size="9" fill="#a0aec0">2024.06</text>
  </g>
 </a>

 <a href="https://ohksj77.tistory.com/260" class="card-link" target="_blank">
  <g filter="url(#shadow)">
   <rect x="30" y="370" width="360" height="90" rx="6" fill="url(#cardBg)"/>
   <rect x="30" y="370" width="360" height="4" rx="2" fill="#48bb78"/>
   <text x="45" y="390" class="tag-text">#FCM #MQ</text>
   <text x="45" y="415" class="card-text" font-size="14" font-weight="600" fill="#2d3748">알림 비동기 처리와 데드레터</text>
   <text x="45" y="435" class="card-text" font-size="11" fill="#718096">재시도와 데드레터 처리 전략 수립</text>
   <text x="330" y="450" class="card-text" font-size="9" fill="#a0aec0">2024.03</text>
  </g>
 </a>

 <a href="https://ohksj77.tistory.com/261" class="card-link" target="_blank">
  <g filter="url(#shadow)">
   <rect x="410" y="370" width="360" height="90" rx="6" fill="url(#cardBg)"/>
   <rect x="410" y="370" width="360" height="4" rx="2" fill="#48bb78"/>
   <text x="425" y="390" class="tag-text">#OpenAPI #캐시</text>
   <text x="425" y="415" class="card-text" font-size="14" font-weight="600" fill="#2d3748">RateLimit 이슈와 캐시</text>
   <text x="425" y="435" class="card-text" font-size="11" fill="#718096">캐시 갱신 전략 수립</text>
   <text x="710" y="450" class="card-text" font-size="9" fill="#a0aec0">2024.03</text>
  </g>
 </a>
 
 <a href="https://ohksj77.tistory.com/263" class="card-link" target="_blank">
  <g filter="url(#shadow)">
   <rect x="30" y="470" width="360" height="90" rx="6" fill="url(#cardBg)"/>
   <rect x="30" y="470" width="360" height="4" rx="2" fill="#48bb78"/>
   <text x="45" y="490" class="tag-text">#테스트 #디자인 패턴</text>
   <text x="45" y="515" class="card-text" font-size="14" font-weight="600" fill="#2d3748">테스트 더블과 전략 패턴</text>
   <text x="45" y="535" class="card-text" font-size="11" fill="#718096">Mock, Fake 와 DIP</text>
   <text x="330" y="550" class="card-text" font-size="9" fill="#a0aec0">2024.03</text>
  </g>
 </a>

 <a href="https://ohksj77.tistory.com/262" class="card-link" target="_blank">
  <g filter="url(#shadow)">
   <rect x="410" y="470" width="360" height="90" rx="6" fill="url(#cardBg)"/>
   <rect x="410" y="470" width="360" height="4" rx="2" fill="#48bb78"/>
   <text x="425" y="490" class="tag-text">#서킷브레이커</text>
   <text x="425" y="515" class="card-text" font-size="14" font-weight="600" fill="#2d3748">OpenAPI와 서킷브레이커</text>
   <text x="425" y="535" class="card-text" font-size="11" fill="#718096">OpenAPI 장애 대응</text>
   <text x="710" y="550" class="card-text" font-size="9" fill="#a0aec0">2024.03</text>
  </g>
 </a>

 <a href="https://ohksj77.tistory.com/259" class="card-link" target="_blank">
  <g filter="url(#shadow)">
   <rect x="30" y="570" width="360" height="90" rx="6" fill="url(#cardBg)"/>
   <rect x="30" y="570" width="360" height="4" rx="2" fill="#48bb78"/>
   <text x="45" y="590" class="tag-text">#MySQL #FullText</text>
   <text x="45" y="615" class="card-text" font-size="14" font-weight="600" fill="#2d3748">FullText 인덱스 성능 최적화</text>
   <text x="45" y="635" class="card-text" font-size="11" fill="#718096">역인덱스 기반 전문 검색</text>
   <text x="330" y="650" class="card-text" font-size="9" fill="#a0aec0">2024.03</text>
  </g>
 </a>
 
 <text x="30" y="700" class="card-text" font-size="16" font-weight="bold" fill="#ffffff">Showpot</text>
 <a href="https://github.com/AlreadyTakenSeat/showpot-core-BE" target="_blank">
  <use href="#github-icon" x="105" y="687" width="16" height="16"/>
  <text x="125" y="700" class="card-text" font-size="12" fill="#ffffff">core</text>
 </a>
 <a href="https://github.com/AlreadyTakenSeat/showpot-alarm-BE" target="_blank">
  <use href="#github-icon" x="180" y="687" width="16" height="16"/>
  <text x="200" y="700" class="card-text" font-size="12" fill="#ffffff">alarm</text>
 </a>
 
 <a href="https://ohksj77.tistory.com/270" class="card-link" target="_blank">
  <g filter="url(#shadow)">
   <rect x="30" y="715" width="360" height="90" rx="6" fill="url(#cardBg)"/>
   <rect x="30" y="715" width="360" height="4" rx="2" fill="#ed8936"/>
   <text x="45" y="735" class="tag-text">#AWS</text>
   <text x="45" y="760" class="card-text" font-size="14" font-weight="600" fill="#2d3748">인프라 전환과 비용 절감</text>
   <text x="45" y="780" class="card-text" font-size="11" fill="#718096">클라우드 마이그레이션</text>
   <text x="330" y="795" class="card-text" font-size="9" fill="#a0aec0">2024.12</text>
  </g>
 </a>
 
 <a href="https://ohksj77.tistory.com/272" class="card-link" target="_blank">
  <g filter="url(#shadow)">
   <rect x="410" y="715" width="360" height="90" rx="6" fill="url(#cardBg)"/>
   <rect x="410" y="715" width="360" height="4" rx="2" fill="#ed8936"/>
   <text x="425" y="735" class="tag-text">#Prometheus #Grafana #Spring AOP</text>
   <text x="425" y="760" class="card-text" font-size="14" font-weight="600" fill="#2d3748">커스텀 메트릭 수집과 모니터링</text>
   <text x="425" y="780" class="card-text" font-size="11" fill="#718096">어노테이션 기반 메트릭 수집 공통 기능</text>
   <text x="710" y="795" class="card-text" font-size="9" fill="#a0aec0">2024.12</text>
  </g>
 </a>
 
 <a href="https://ohksj77.tistory.com/271" class="card-link" target="_blank">
  <g filter="url(#shadow)">
   <rect x="30" y="815" width="360" height="90" rx="6" fill="url(#cardBg)"/>
   <rect x="30" y="815" width="360" height="4" rx="2" fill="#ed8936"/>
   <text x="45" y="835" class="tag-text">#Lock #카운터</text>
   <text x="45" y="860" class="card-text" font-size="14" font-weight="600" fill="#2d3748">조회수 동시성 이슈와 비동기 처리</text>
   <text x="45" y="880" class="card-text" font-size="11" fill="#718096">동시 카운터 접근 제어</text>
   <text x="330" y="895" class="card-text" font-size="9" fill="#a0aec0">2024.12</text>
  </g>
 </a>
 
 <text x="30" y="945" class="card-text" font-size="16" font-weight="bold" fill="#ffffff">GitRank</text>
 <a href="https://github.com/tukcom2023CD/DragonGuard-JinJin" target="_blank">
  <use href="#github-icon" x="105" y="932" width="16" height="16"/>
  <text x="125" y="945" class="card-text" font-size="12" fill="#ffffff">v1</text>
 </a>
 <a href="https://github.com/orgs/GitRank-v2/repositories?q=core-service+OR+open-api-worker+OR+alert-worker" target="_blank">
  <use href="#github-icon" x="170" y="932" width="16" height="16"/>
  <text x="190" y="945" class="card-text" font-size="12" fill="#ffffff">v2</text>
 </a>
 
 <a href="https://ohksj77.tistory.com/258" class="card-link" target="_blank">
  <g filter="url(#shadow)">
   <rect x="30" y="960" width="360" height="90" rx="6" fill="url(#cardBg)"/>
   <rect x="30" y="960" width="360" height="4" rx="2" fill="#8b5cf6"/>
   <text x="45" y="980" class="tag-text">#배치 #스케줄러</text>
   <text x="45" y="1005" class="card-text" font-size="14" font-weight="600" fill="#2d3748">OpenAPI의 느린 응답과 스케줄링 기반 배치</text>
   <text x="45" y="1025" class="card-text" font-size="11" fill="#718096">느린 응답과 동기적인 응답</text>
   <text x="330" y="1040" class="card-text" font-size="9" fill="#a0aec0">2024.03</text>
  </g>
 </a>
 
 <a href="https://ohksj77.tistory.com/251" class="card-link" target="_blank">
  <g filter="url(#shadow)">
   <rect x="410" y="960" width="360" height="90" rx="6" fill="url(#cardBg)"/>
   <rect x="410" y="960" width="360" height="4" rx="2" fill="#8b5cf6"/>
   <text x="425" y="980" class="tag-text">#Lock</text>
   <text x="425" y="1005" class="card-text" font-size="14" font-weight="600" fill="#2d3748">동시성 이슈와 Lock 전략 수립</text>
   <text x="425" y="1025" class="card-text" font-size="11" fill="#718096">분산 환경에서의 동시성 제어</text>
   <text x="710" y="1040" class="card-text" font-size="9" fill="#a0aec0">2024.03</text>
  </g>
 </a>
 
 <a href="https://ohksj77.tistory.com/256" class="card-link" target="_blank">
  <g filter="url(#shadow)">
   <rect x="30" y="1060" width="360" height="90" rx="6" fill="url(#cardBg)"/>
   <rect x="30" y="1060" width="360" height="4" rx="2" fill="#8b5cf6"/>
   <text x="45" y="1080" class="tag-text">#랭킹 #페이징</text>
   <text x="45" y="1105" class="card-text" font-size="14" font-weight="600" fill="#2d3748">랭킹 시스템과 SortedSet</text>
   <text x="45" y="1125" class="card-text" font-size="11" fill="#718096">실시간 갱신을 반영하는 페이징 랭킹 시스템</text>
   <text x="330" y="1140" class="card-text" font-size="9" fill="#a0aec0">2024.03</text>
  </g>
 </a>
 
 <text x="30" y="1190" class="card-text" font-size="16" font-weight="bold" fill="#ffffff">기타 탐구 작업</text>

 <a href="https://ohksj77.tistory.com/250" class="card-link" target="_blank">
  <g filter="url(#shadow)">
   <rect x="30" y="1205" width="360" height="90" rx="6" fill="url(#cardBg)"/>
   <rect x="30" y="1205" width="360" height="4" rx="2" fill="#10b981"/>
   <text x="45" y="1225" class="tag-text">#쿼리 최적화 #ULID #PostgreSQL</text>
   <text x="45" y="1250" class="card-text" font-size="14" font-weight="600" fill="#2d3748">UUID 및 Brin 인덱스 쿼리 개선</text>
   <text x="45" y="1270" class="card-text" font-size="11" fill="#718096">정렬된 데이터에 적합한 인덱스로 쿼리 튜닝</text>
   <text x="330" y="1285" class="card-text" font-size="9" fill="#a0aec0">2024.03</text>
  </g>
 </a>
 
 <a href="https://ohksj77.tistory.com/268" class="card-link" target="_blank">
  <g filter="url(#shadow)">
   <rect x="410" y="1205" width="360" height="90" rx="6" fill="url(#cardBg)"/>
   <rect x="410" y="1205" width="360" height="4" rx="2" fill="#10b981"/>
   <text x="425" y="1225" class="tag-text">#푸시 알림 #MQ</text>
   <text x="425" y="1250" class="card-text" font-size="14" font-weight="600" fill="#2d3748">알림 시스템 설계</text>
   <text x="425" y="1270" class="card-text" font-size="11" fill="#718096">코드 리뷰어로서 도운 시스템 설계</text>
   <text x="710" y="1285" class="card-text" font-size="9" fill="#a0aec0">2024.07</text>
  </g>
 </a>
 
 <a href="https://ohksj77.tistory.com/266" class="card-link" target="_blank">
  <g filter="url(#shadow)">
   <rect x="30" y="1305" width="360" height="90" rx="6" fill="url(#cardBg)"/>
   <rect x="30" y="1305" width="360" height="4" rx="2" fill="#10b981"/>
   <text x="45" y="1325" class="tag-text">#k6 #locust #artillery</text>
   <text x="45" y="1350" class="card-text" font-size="14" font-weight="600" fill="#2d3748">성능테스트 툴 비교</text>
   <text x="45" y="1370" class="card-text" font-size="11" fill="#718096">인터페이스와 활용 방법과 지표 비교</text>
   <text x="330" y="1385" class="card-text" font-size="9" fill="#a0aec0">2024.05</text>
  </g>
 </a>
 
 <a href="https://ohksj77.tistory.com/249" class="card-link" target="_blank">
  <g filter="url(#shadow)">
   <rect x="410" y="1305" width="360" height="90" rx="6" fill="url(#cardBg)"/>
   <rect x="410" y="1305" width="360" height="4" rx="2" fill="#10b981"/>
   <text x="425" y="1325" class="tag-text">#Hibernate #OpenSource</text>
   <text x="425" y="1350" class="card-text" font-size="14" font-weight="600" fill="#2d3748">Hibernate @SoftDelete 탐구</text>
   <text x="425" y="1370" class="card-text" font-size="11" fill="#718096">오픈소스 신기능 탐구</text>
   <text x="710" y="1385" class="card-text" font-size="9" fill="#a0aec0">2024.03</text>
  </g>
 </a>
 
 <text x="30" y="1435" class="card-text" font-size="16" font-weight="bold" fill="#ffffff">오픈소스 직접 구현 (Kotlin)</text>
 
 <a href="https://ohksj77.tistory.com/276" class="card-link" target="_blank">
  <g filter="url(#shadow)">
   <rect x="30" y="1450" width="360" height="90" rx="6" fill="url(#cardBg)"/>
   <rect x="30" y="1450" width="360" height="4" rx="2" fill="#f59e0b"/>
   <text x="45" y="1470" class="tag-text">#MySQL</text>
   <text x="45" y="1495" class="card-text" font-size="14" font-weight="600" fill="#2d3748">Kotlin으로 직접 MySQL 구현하기</text>
   <text x="45" y="1515" class="card-text" font-size="11" fill="#718096">MySQL 내부 구현 따라가기</text>
   <text x="330" y="1530" class="card-text" font-size="9" fill="#a0aec0">2025.07</text>
  </g>
 </a>
 
 <a href="https://ohksj77.tistory.com/277" class="card-link" target="_blank">
  <g filter="url(#shadow)">
   <rect x="410" y="1450" width="360" height="90" rx="6" fill="url(#cardBg)"/>
   <rect x="410" y="1450" width="360" height="4" rx="2" fill="#f59e0b"/>
   <text x="425" y="1470" class="tag-text">#Git</text>
   <text x="425" y="1495" class="card-text" font-size="14" font-weight="600" fill="#2d3748">Kotlin으로 직접 Git 구현하기</text>
   <text x="425" y="1515" class="card-text" font-size="11" fill="#718096">Git 내부 원리 알아보기</text>
   <text x="710" y="1530" class="card-text" font-size="9" fill="#a0aec0">2025.07</text>
  </g>
 </a>

 <a href="https://ohksj77.tistory.com/278" class="card-link" target="_blank">
  <g filter="url(#shadow)">
   <rect x="30" y="1550" width="360" height="90" rx="6" fill="url(#cardBg)"/>
   <rect x="30" y="1550" width="360" height="4" rx="2" fill="#f59e0b"/>
   <text x="45" y="1570" class="tag-text">#API Gateway</text>
   <text x="45" y="1595" class="card-text" font-size="14" font-weight="600" fill="#2d3748">Kotlin으로 직접 API GW 구현하기</text>
   <text x="45" y="1615" class="card-text" font-size="11" fill="#718096">직접 설정파일을 읽어 라우팅하기</text>
   <text x="330" y="1630" class="card-text" font-size="9" fill="#a0aec0">2025.07</text>
  </g>
 </a>
</svg>
